<svg width="24" height="24" viewBox="0 0 24 24" fill="none" xmlns="http://www.w3.org/2000/svg">
  <rect x="1" y="1" width="22" height="22" rx="2" fill="#F5F5F5" stroke="#E0E0E0"/>
  <rect x="2" y="2" width="10" height="4" rx="1" fill="#BBDEFB" stroke="#2196F3"/>
  <rect x="12" y="2" width="10" height="4" rx="1" fill="#C8E6C9" stroke="#4CAF50"/>
  <rect x="2" y="7" width="5" height="4" rx="1" fill="#FFE0B2" stroke="#FF9800"/>
  <rect x="2" y="12" width="5" height="4" rx="1" fill="#E1BEE7" stroke="#9C27B0"/>
  <rect x="7" y="7" width="5" height="4" rx="1" fill="#FFECB3" stroke="#FFC107"/>
  <rect x="7" y="12" width="5" height="4" rx="1" fill="#C5CAE9" stroke="#3F51B5"/>
  <rect x="12" y="7" width="5" height="4" rx="1" fill="#F8BBD0" stroke="#E91E63"/>
  <rect x="12" y="12" width="5" height="4" rx="1" fill="#B2DFDB" stroke="#009688"/>
  <rect x="17" y="7" width="5" height="2" rx="1" fill="#D7CCC8" stroke="#795548"/>
  <rect x="17" y="9" width="5" height="2" rx="1" fill="#CFD8DC" stroke="#607D8B"/>
  <rect x="17" y="12" width="5" height="2" rx="1" fill="#FFCCBC" stroke="#FF5722"/>
  <rect x="17" y="14" width="5" height="2" rx="1" fill="#F5F5F5" stroke="#9E9E9E"/>
  <rect x="2" y="17" width="10" height="4" rx="1" fill="#FFCDD2" stroke="#F44336"/>
  <rect x="12" y="17" width="10" height="4" rx="1" fill="#B3E5FC" stroke="#03A9F4"/>
</svg>